<?xml version="1.0" encoding="UTF-8"?>
<svg id="Layer_1" data-name="Layer 1" xmlns="http://www.w3.org/2000/svg" xmlns:xlink="http://www.w3.org/1999/xlink" viewBox="0 0 150 40">
  <defs>
    <style>
      .cls-1 {
        fill: url(#linear-gradient);
      }

      .cls-1, .cls-2 {
        fill-rule: evenodd;
      }

      .cls-3 {
        fill: #343c4a;
      }

      .cls-2 {
        fill: url(#linear-gradient-2);
      }
    </style>
    <linearGradient id="linear-gradient" x1="371.8" y1="-395.22" x2="355.94" y2="-418.88" gradientTransform="translate(-346 -386.24) scale(1 -1)" gradientUnits="userSpaceOnUse">
      <stop offset="0" stop-color="#22dfdd"/>
      <stop offset="1" stop-color="#009fc8"/>
    </linearGradient>
    <linearGradient id="linear-gradient-2" x1="353.12" y1="-419.18" x2="374.59" y2="-394.58" gradientTransform="translate(-346 -386.24) scale(1 -1)" gradientUnits="userSpaceOnUse">
      <stop offset="0" stop-color="#0181a2" stop-opacity=".11"/>
      <stop offset=".34" stop-color="#001115" stop-opacity="0"/>
      <stop offset=".45" stop-color="#06c0f1" stop-opacity="0"/>
      <stop offset=".53" stop-color="#026179"/>
      <stop offset=".71" stop-color="#01a29e" stop-opacity=".58"/>
      <stop offset="1" stop-color="#fff" stop-opacity="0"/>
    </linearGradient>
  </defs>
  <path class="cls-3" d="m55.66,28.03h3.39V11.03h-3.39v17Z"/>
  <path class="cls-3" d="m107.58,20.83c2.15-.74,3.41-2.42,3.43-4.66.02-2.02-.68-3.67-2.64-4.58-.96-.45-1.99-.57-3.04-.57h-6.65c-.13,0-.26.01-.39.02v17.01h3.46v-9.23c.13.12.24.25.32.41,1.63,2.84,3.26,5.67,4.89,8.5.08.14.25.33.39.33,1.23.02,2.46.01,3.78.01-1.44-2.38-2.83-4.68-4.24-7.02l.69-.23Zm-1.99-2.46c-1.26.11-2.54.02-3.83.02v-4.54c1.37.05,2.73.01,4.07.16,1.12.13,1.76,1.06,1.73,2.17-.03,1.11-.78,2.09-1.97,2.18Z"/>
  <path class="cls-3" d="m50.87,20.07c-.46-.32-.93-.62-1.43-.88.07-.05.14-.1.21-.15,1.6-1.05,2.37-2.87,1.96-4.59-.23-.9-.73-1.7-1.44-2.31-.71-.6-1.6-.97-2.53-1.06-.47-.04-.94-.07-1.4-.07h-6.82v17.03c.07.01.14.02.21.02,2.61,0,5.23.01,7.84,0,.9,0,1.78-.22,2.58-.63,2.87-1.46,3.33-5.35.83-7.36Zm-4.25-6.13c1.08.09,1.66.93,1.64,2.05-.03,1.04-.65,1.72-1.74,1.82-.52.05-2.68.02-3.64.04v-3.94c1.27,0,2.51-.07,3.75.02Zm.53,11.19c-1.41.09-2.83.02-4.28.02v-4.41h.76c1.1,0,2.2-.02,3.3.02,1.25.04,2,.86,2.08,2.18.07,1.23-.6,2.12-1.85,2.2Z"/>
  <path class="cls-3" d="m73.95,23.94c-.12-.12-.22-.26-.29-.41l-2.05-4.23c-1.28-2.65-2.57-5.3-3.86-7.95-.07-.14-.25-.32-.38-.32-1.51-.02-3.02-.01-4.57-.01v17.03h3.45v-12.87c.11.11.2.24.26.38,1.96,4.05,3.93,8.1,5.88,12.15.04.12.12.23.22.3.11.07.24.1.36.09,1.34-.02,2.67,0,4.01,0h.41V11.05h-3.44v12.89Z"/>
  <path class="cls-3" d="m90.05,11.34c-.02-.1-.08-.19-.16-.26-.09-.06-.19-.09-.3-.07-1.19.01-2.38.02-3.57,0-.34,0-.47.1-.58.41-1.74,5.01-3.49,10.02-5.25,15.03-.18.53-.37,1.06-.56,1.63,1.12,0,2.19-.02,3.26,0,.32,0,.43-.11.52-.38.3-.91.64-1.8.94-2.71.02-.11.08-.21.18-.28.09-.07.21-.09.32-.08,1.06.02,2.12,0,3.17.01.13.01.26-.01.37-.08.11-.07.2-.17.25-.29.42-.75.85-1.49,1.28-2.23.05-.09.12-.17.23-.31l2.27,6.31h3.62c-.04-.13-.06-.24-.1-.35-1.98-5.45-3.94-10.9-5.91-16.36Zm-4.5,10.16c.74-2.19,1.45-4.34,2.24-6.63l2.29,6.63h-4.52Z"/>
  <path class="cls-3" d="m123.39,11c-.11-.01-.23.02-.32.08-.1.06-.17.15-.21.25-.52.99-1.06,1.97-1.59,2.95-.71,1.31-1.42,2.62-2.16,3.98-.11-.17-.21-.3-.27-.44-1.22-2.17-2.44-4.33-3.66-6.49-.07-.13-.23-.31-.35-.32-1.2-.02-2.4-.01-3.67-.01.11.21.19.36.28.5,1.81,3.15,3.62,6.29,5.43,9.44.12.21.19.45.2.69.01,1.97,0,3.94,0,5.91v.48h3.46v-6.54c.01-.43-.1-.86-.33-1.23-.35-.56-.65-1.15-1.01-1.78h2.99c.13.01.26-.01.37-.08.11-.06.19-.16.24-.28,1.21-2.26,2.44-4.49,3.66-6.74.06-.11.11-.22.2-.39-1.12.01-2.18.02-3.25,0Z"/>
  <path class="cls-3" d="m135.66,16.78h2.73c.08,0,.16-.01.24-.04.08-.03.15-.07.21-.13,1.25-1.83,2.46-3.67,3.74-5.59h-3.52c-.11,0-.23.01-.33.07-.1.06-.18.14-.23.24-1.05,1.64-2.12,3.27-3.18,4.9-.08.13-.17.25-.29.41-.11-.17-.21-.29-.29-.42-1.06-1.62-2.13-3.23-3.17-4.86-.06-.12-.16-.22-.29-.28-.12-.06-.26-.09-.4-.07-1.04.02-2.08,0-3.12.01-.11,0-.21.02-.35.03.12.19.21.34.31.48,1.57,2.4,3.15,4.79,4.72,7.18.08.1.13.22.13.34s-.04.25-.13.34c-1.77,2.74-3.54,5.47-5.29,8.21-.08.13-.16.26-.27.46,1.19,0,2.32-.01,3.44,0,.13.01.27-.02.39-.09.12-.07.21-.17.27-.29,1.1-1.76,2.22-3.52,3.32-5.27.08-.13.17-.26.29-.42.12.18.23.32.32.46,1.16,1.76,2.32,3.52,3.46,5.29.06.1.15.19.25.25.11.06.23.08.35.07,1.04-.02,2.08,0,3.12,0,.12,0,.25-.02.42-.03-2.46-3.76-4.9-7.47-7.38-11.26h.55Z"/>
  <path class="cls-1" d="m24.48,25.33c-.68-.59-1.7-.59-2.38,0l-6.73,5.87-4.99,4.35c-1.15,1-2.97.21-2.97-1.3V14.26c0-1.5,1.82-2.3,2.97-1.3l1.96,1.71c.68.59,1.7.59,2.38,0l6.73-5.87,4.99-4.35c1.15-1,2.97-.21,2.97,1.3v20c0,1.5-1.82,2.3-2.97,1.3l-1.96-1.71Z"/>
  <path class="cls-2" d="m24.48,25.33c-.68-.59-1.7-.59-2.38,0l-6.73,5.87-4.99,4.35c-1.15,1-2.97.21-2.97-1.3V14.26c0-1.5,1.82-2.3,2.97-1.3l1.96,1.71c.68.59,1.7.59,2.38,0l6.73-5.87,4.99-4.35c1.15-1,2.97-.21,2.97,1.3v20c0,1.5-1.82,2.3-2.97,1.3l-1.96-1.71Z"/>
</svg>